Coordinates
version=1
nRows=29
nColumns=24
inDegrees=yes

Units are S.I. units (second, meters, Newtons, ...)
Angles are in degrees.

endheader
time	pelvis_tilt	pelvis_list	pelvis_rotation	pelvis_tx	pelvis_ty	pelvis_tz	hip_flexion_r	hip_adduction_r	hip_rotation_r	knee_angle_r	ankle_angle_r	subtalar_angle_r	mtp_angle_r	hip_flexion_l	hip_adduction_l	hip_rotation_l	knee_angle_l	ankle_angle_l	subtalar_angle_l	mtp_angle_l	lumbar_extension	lumbar_bending	lumbar_rotation
      1.09200000	     -4.08645603	      5.12859015	     -2.16269492	      0.17799491	      0.90298394	      0.31069904	     19.80045282	     -9.02556004	     -5.49281452	    -74.07298275	     -4.30473126	     11.40036680	      8.73604041	     14.97087447	      7.88649775	     -5.67149783	    -18.68021442	      9.55110351	     -4.96196997	      4.72884795	     -4.51558075	     -7.64550884	      2.61955583
      1.09616667	     -4.09142475	      4.94057024	     -2.10461664	      0.18328759	      0.90412267	      0.31051625	     20.50579062	     -8.76317647	     -5.58473934	    -73.97662946	     -3.78942869	     11.22056188	      8.70672929	     14.31019779	      7.75971551	     -5.50574909	    -18.11799548	      9.56877667	     -4.92958456	      4.72085007	     -4.50821866	     -7.40480126	      2.51480733
      1.10033333	     -4.04386352	      4.74357989	     -2.03139299	      0.18862132	      0.90535366	      0.31028440	     21.11733759	     -8.50382945	     -5.70761275	    -73.77737603	     -3.34511169	     11.07594168	      8.62866705	     13.55440814	      7.64918171	     -5.20873333	    -17.47596822	      9.56527545	     -5.07471437	      4.69826357	     -4.56361435	     -7.16870468	      2.26542636
      1.10450000	     -4.01989633	      4.54086782	     -1.95412108	      0.19393951	      0.90649530	      0.31005093	     21.74084100	     -8.23349209	     -5.83456425	    -73.51853636	     -2.86838327	     10.89987946	      8.55300274	     12.84428209	      7.51976365	     -4.95648450	    -16.87157669	      9.55407586	     -5.15460531	      4.67415120	     -4.59060876	     -6.91442265	      2.07722050
      1.10866667	     -3.98542897	      4.32267031	     -1.86719763	      0.19926063	      0.90762674	      0.30981331	     22.32551938	     -7.94548320	     -5.97842251	    -73.17585478	     -2.40610050	     10.70245330	      8.48205851	     12.12740026	      7.37003327	     -4.70066411	    -16.27543057	      9.55037226	     -5.22299957	      4.64980929	     -4.63002305	     -6.64283946	      1.89097199
      1.11283333	     -3.94785288	      4.09933663	     -1.77140579	      0.20458532	      0.90872406	      0.30955356	     22.88444618	     -7.65683697	     -6.13642990	    -72.76255366	     -1.95284622	     10.48893716	      8.41275293	     11.40995563	      7.21309524	     -4.43870975	    -15.68242279	      9.54154907	     -5.29121788	      4.62493772	     -4.67445516	     -6.36526415	      1.69338049
      1.11700000	     -3.90642265	      3.86836611	     -1.66749751	      0.20990392	      0.90978348	      0.30928068	     23.41696385	     -7.36301512	     -6.30743402	    -72.27864692	     -1.51059985	     10.26248374	      8.34318883	     10.69454592	      7.04475015	     -4.17230408	    -15.09830050	      9.53281575	     -5.36370353	      4.60018036	     -4.72388423	     -6.07493435	      1.49185064
      1.12116667	     -3.85605719	      3.63505592	     -1.55421144	      0.21522441	      0.91081636	      0.30899385	     23.91679199	     -7.07201358	     -6.49309972	    -71.72598031	     -1.08136865	     10.01489595	      8.26482643	      9.97097702	      6.87181743	     -3.89588679	    -14.51341065	      9.51720011	     -5.44320328	      4.57270968	     -4.78259569	     -5.78235539	      1.27481256
      1.12533333	     -3.80045409	      3.39843004	     -1.43514851	      0.22054136	      0.91180792	      0.30870039	     24.38976170	     -6.78085733	     -6.68742771	    -71.10748344	     -0.66137634	      9.75568640	      8.18377852	      9.24867511	      6.69020671	     -3.62291162	    -13.93909963	      9.50445969	     -5.51885569	      4.54546070	     -4.84738318	     -5.48289540	      1.06088926
      1.12950000	     -3.77330616	      3.15869310	     -1.30277297	      0.22583163	      0.91269060	      0.30839814	     24.87683986	     -6.49015516	     -6.89472887	    -70.43691916	     -0.18137837	      9.48679509	      8.14250527	      8.59092264	      6.49065734	     -3.41517935	    -13.42666946	      9.47743367	     -5.50573391	      4.53115131	     -4.87416868	     -5.17528450	      0.91893191
      1.13366667	     -3.67264481	      2.92111762	     -1.17553463	      0.23115269	      0.91366180	      0.30808256	     25.25748670	     -6.21053465	     -7.10840560	    -69.68300604	      0.12357251	      9.17854107	      8.03492875	      7.80508008	      6.30868365	     -3.08101967	    -12.81481650	      9.49024315	     -5.64852399	      4.50110260	     -5.00288626	     -4.87082473	      0.60799968
      1.13783333	     -3.63753291	      2.67917877	     -1.02693066	      0.23641754	      0.91444965	      0.30776872	     25.69589794	     -5.92557081	     -7.33181539	    -68.88992914	      0.58225945	      8.89116103	      7.97877197	      7.15280703	      6.09922963	     -2.85641616	    -12.32012891	      9.45980840	     -5.64901842	      4.48462093	     -5.04877756	     -4.55821221	      0.44965881
      1.14200000	     -3.53166938	      2.44875158	     -0.89217551	      0.24171313	      0.91530978	      0.30745745	     26.03632627	     -5.65942732	     -7.55190997	    -68.02226006	      0.85356603	      8.55618870	      7.85351744	      6.37709168	      5.91123620	     -2.53896894	    -11.72963359	      9.47938312	     -5.77477692	      4.45391790	     -5.17854753	     -4.27846093	      0.13735890
      1.14616667	     -3.45638721	      2.22224429	     -0.74159885	      0.24698322	      0.91604982	      0.30714636	     26.39349351	     -5.40172980	     -7.78193706	    -67.10979264	      1.20004265	      8.23036216	      7.71315916	      5.66386173	      5.71562802	     -2.25822841	    -11.19087402	      9.46498802	     -5.86173222	      4.42013791	     -5.26615215	     -3.99564189	     -0.12121365
      1.15033333	     -3.38464978	      2.01870510	     -0.58545873	      0.25223242	      0.91671367	      0.30682174	     26.74429205	     -5.17438587	     -8.01026711	    -66.15959466	      1.55735909	      7.88541967	      7.45206529	      4.95671896	      5.54395354	     -1.95938866	    -10.64624079	      9.39810914	     -6.00345832	      4.35983102	     -5.35342685	     -3.74585682	     -0.43501286
      1.15450000	     -3.31679025	      1.78000318	     -0.42298331	      0.25746861	      0.91731967	      0.30652802	     27.07017989	     -4.90734028	     -8.25375522	    -65.13084993	      1.86652899	      7.56365083	      7.36386636	      4.29844990	      5.31280461	     -1.76234562	    -10.19863273	      9.45652905	     -5.96034628	      4.34262534	     -5.43107737	     -3.44408413	     -0.56273758
      1.15866667	     -3.21987914	      1.58154738	     -0.28014284	      0.26270608	      0.91788689	      0.30624617	     27.36390131	     -4.68237303	     -8.46945262	    -64.07384378	      2.09353804	      7.17627574	      7.21733382	      3.57423372	      5.12869951	     -1.52183829	     -9.67283201	      9.49653094	     -5.98400342	      4.31505323	     -5.55487301	     -3.18200745	     -0.83382365
      1.16283333	     -3.15931370	      1.37816705	     -0.11141334	      0.26790927	      0.91833870	      0.30595309	     27.67339699	     -4.45993858	     -8.70639427	    -62.96329147	      2.39440369	      6.82654933	      7.12375058	      2.93705423	      4.92776007	     -1.32789548	     -9.23751320	      9.50361819	     -5.96759197	      4.29798661	     -5.62765135	     -2.92449224	     -1.01661521
      1.16700000	     -3.07496052	      1.19467024	      0.04177073	      0.27311245	      0.91875053	      0.30568570	     27.94888397	     -4.25464765	     -8.92366027	    -61.81368508	      2.60966019	      6.43736695	      7.01659139	      2.25580545	      4.74583286	     -1.12266581	     -8.76207137	      9.54009528	     -5.96487962	      4.28078688	     -5.73378156	     -2.68987422	     -1.25038114
      1.17116667	     -2.99636851	      1.02861182	      0.19234645	      0.27830673	      0.91908242	      0.30543488	     28.21893525	     -4.06632415	     -9.12895992	    -60.62469366	      2.79738431	      6.05475381	      6.89849411	      1.58568518	      4.57787556	     -0.92030263	     -8.29460436	      9.57779456	     -5.97058057	      4.26302292	     -5.82986971	     -2.47827074	     -1.49271512
      1.17533333	     -2.92271977	      0.87162588	      0.34502310	      0.28348421	      0.91933548	      0.30518634	     28.48074431	     -3.88888085	     -9.33249625	    -59.39528376	      2.96946314	      5.66640603	      6.77524016	      0.92953510	      4.41547057	     -0.72834745	     -7.84041696	      9.61649661	     -5.97178364	      4.24545616	     -5.92422241	     -2.27270348	     -1.73151028
      1.17950000	     -2.84104162	      0.75413757	      0.47626780	      0.28865745	      0.91950724	      0.30497448	     28.73587113	     -3.74520809	     -9.50137682	    -58.15108087	      3.06698591	      5.27033370	      6.55415483	      0.24495774	      4.29562497	     -0.51740279	     -7.34538292	      9.66952963	     -6.02513901	      4.21440041	     -6.03392427	     -2.11963860	     -2.04069125
      1.18366667	     -2.79142887	      0.61508438	      0.63185516	      0.29382073	      0.91958677	      0.30476202	     28.99212546	     -3.58324059	     -9.69434664	    -56.84194318	      3.23785464	      4.90978649	      6.42787013	     -0.35784443	      4.13890430	     -0.37104118	     -6.94418565	      9.70013027	     -5.98188247	      4.19822468	     -6.09233648	     -1.93430851	     -2.21501133
      1.18783333	     -2.73185158	      0.50204741	      0.76685501	      0.29898667	      0.91960171	      0.30458337	     29.23253810	     -3.43855193	     -9.85538555	    -55.50838692	      3.33574597	      4.52706499	      6.29912207	     -0.98596119	      4.00875560	     -0.23152889	     -6.51425279	      9.76036291	     -5.94053186	      4.18339938	     -6.17032386	     -1.78910752	     -2.42759975
      1.19200000	     -2.67327639	      0.40865190	      0.89312216	      0.30414690	      0.91953892	      0.30443977	     29.46439372	     -3.30747175	     -9.99907804	    -54.14746985	      3.40322880	      4.15395017	      6.15961866	     -1.61104666	      3.89571460	     -0.10132207	     -6.08879074	      9.82608456	     -5.90280654	      4.16803708	     -6.24815142	     -1.66633433	     -2.65247370
      1.19616667	     -2.62685310	      0.32939390	      1.01287371	      0.30931933	      0.91938647	      0.30430712	     29.69516600	     -3.18627918	    -10.12613104	    -52.75815550	      3.46100678	      3.79851138	      6.02049027	     -2.22009699	      3.79620993	      0.01535804	     -5.67270986	      9.89234516	     -5.86024748	      4.15373917	     -6.30944900	     -1.55903245	     -2.86952553
      1.20033333	     -2.58396945	      0.26338425	      1.12596296	      0.31449239	      0.91916026	      0.30420557	     29.91609215	     -3.07171241	    -10.23760510	    -51.34246995	      3.50360647	      3.46251572	      5.88425604	     -2.82201596	      3.70703297	      0.11648553	     -5.26468378	      9.96361641	     -5.80728772	      4.14025453	     -6.36813683	     -1.47025053	     -3.07818651
      1.20450000	     -2.54352642	      0.21337233	      1.22707459	      0.31968115	      0.91886359	      0.30413489	     30.12531184	     -2.96333700	    -10.32379109	    -49.90175568	      3.52518294	      3.14490967	      5.74361161	     -3.41997589	      3.63282936	      0.20432950	     -4.86518753	     10.04329565	     -5.75150113	      4.12717753	     -6.42120936	     -1.40187066	     -3.28695520
      1.20866667	     -2.50885895	      0.19930451	      1.31939929	      0.32486192	      0.91846997	      0.30409834	     30.34010541	     -2.88082286	    -10.37344776	    -48.46907377	      3.57911160	      2.81967221	      5.06999336	     -4.03128602	      3.59940414	      0.35558615	     -4.42438618	     10.06997132	     -5.81158362	      4.05193120	     -6.48369895	     -1.39176111	     -3.66539119
